<svg xmlns="http://www.w3.org/2000/svg" xml:space="preserve" width="284" height="239" x="100" y="100" viewBox="0 0 812 684">
  <path fill="none" stroke="#FFF" stroke-width="10" d="M133 333s58-58 129-70 73.5-11.125 82.875-14.875 20.958-10.132 22.958-29.965S375 122.75 375 122.75s3.75-16.75-5.25-26.5-16.5-20.75-17.5-38.75S366.5 12 400.75 12s48.5 31.75 48.5 45.5-6 26.75-12.5 34S424.25 97 427 133s6.333 78 15 95.667 16.666 16.333 47.333 22 60 11.999 90 25.665 45 21.333 63.667 34 27.666 21.667 40.333 38 19 23.333 25 25.667 10.334 3.667 20.334-12 35.332-80 46.666-79.667S796 308 792 373s-14 140-54 148-25.75-7.375-44.5 20.5-38.167 55.501-60.833 70.501-44.666 26.666-74.333 32.333S510.75 652.75 485 655s-65.5 3.5-143.5 0-128.5-15.5-160-35-67.167-71.666-73.167-80.333-6-10.001-25.333-12.667-68-31-68-137 5.667-98.333 16.333-104.333S47.75 295.75 49.75 301.25s15.75 41.5 20.5 49.25 14 25 19 26 9.75 3.375 18.375-10.375S131.34 334.603 133 333z" />
  <g stroke="#FFF" stroke-miterlimit="10" stroke-width="10">
    <circle cx="403.387" cy="366.874" r="73.052" fill="none" />
    <circle cx="405.067" cy="367.731" r="30.999" fill="#FFF" />
    <circle cx="595.374" cy="416.211" r="73.052" fill="none" />
    <circle cx="597.055" cy="417.068" r="31" fill="#FFF" />
    <circle cx="213.691" cy="416.942" r="73.052" fill="none" />
    <circle cx="215.371" cy="417.799" r="31" fill="#FFF" />
  </g>
</svg>